<svg version="1.1" xmlns="http://www.w3.org/2000/svg" width="100%" viewBox="0 0 584 580">

<path fill="#1ebb58" opacity="1.0" stroke="none" 
	d="
M283.912537,393.928467 
	C269.549957,424.850769 255.293121,455.407990 241.121979,486.004913 
	C238.649338,491.343597 235.334808,495.790375 229.675385,497.864075 
	C222.169510,500.614349 213.569290,497.629730 209.528870,490.168091 
	C204.717255,481.282318 200.573456,472.026764 196.322189,462.847198 
	C181.975861,431.870056 167.693878,400.863068 153.435516,369.845306 
	C151.772507,366.227600 149.448959,363.712677 145.665573,361.971924 
	C106.748207,344.066345 67.945053,325.912537 29.030304,308.001160 
	C21.689764,304.622528 16.446573,300.487000 16.592077,291.395416 
	C16.739285,282.197540 21.765699,277.202545 29.412313,273.683899 
	C50.326103,264.060181 71.207886,254.366806 92.093781,244.682556 
	C109.975090,236.391464 127.925255,228.240585 145.644028,219.614929 
	C148.791519,218.082687 151.936096,214.991531 153.421371,211.838074 
	C168.172562,180.519302 182.542999,149.021454 197.095306,117.608604 
	C201.137955,108.882088 205.315643,100.213684 209.639084,91.623146 
	C212.952179,85.040062 218.954636,82.922325 225.844254,83.047623 
	C232.633514,83.171089 237.230316,86.511223 240.140930,92.811020 
	C258.585022,132.731689 277.122650,172.609650 295.848480,212.398605 
	C297.126434,215.114029 299.779602,217.858643 302.480103,219.126511 
	C341.825439,237.599045 381.304382,255.786789 420.706390,274.139099 
	C427.223236,277.174438 432.022461,281.742249 432.089813,289.675232 
	C432.160400,297.992920 427.889374,303.576111 420.729248,306.954742 
	C399.993805,316.739075 379.167175,326.330139 358.374969,335.994141 
	C339.543518,344.746735 320.664612,353.400116 301.933960,362.363312 
	C299.516846,363.519958 297.210632,365.937347 295.974518,368.346222 
	C291.729706,376.618317 287.983521,385.146332 283.912537,393.928467 
z"/>
<path fill="#f9f7f7" opacity="0.8" stroke="none" 
	d="
M477.688232,569.912354 
	C468.020844,574.050720 461.794037,571.605408 458.305145,562.238525 
	C451.405945,543.715881 444.837891,525.068176 437.744812,506.621368 
	C436.766235,504.076477 433.937592,501.456665 431.349823,500.442841 
	C412.933136,493.227905 394.353790,486.428497 375.831757,479.481964 
	C367.553009,476.377106 364.158295,470.833862 367.387451,463.349579 
	C368.828827,460.008942 372.652954,456.775543 376.146942,455.395752 
	C394.356689,448.204651 412.787170,441.567963 431.191986,434.878967 
	C435.160797,433.436523 437.253296,430.861481 438.657013,426.941681 
	C444.925232,409.437714 451.335815,391.981873 457.984833,374.619629 
	C459.305939,371.169891 461.228516,367.321106 464.038147,365.195343 
	C470.930084,359.980835 479.601135,363.275269 482.846619,371.820251 
	C489.635803,389.695312 496.491913,407.549225 502.913300,425.557068 
	C504.830658,430.933990 507.885803,433.829987 513.256470,435.685669 
	C531.306763,441.922394 549.196106,448.627258 567.118408,455.230865 
	C572.519348,457.220886 575.072327,461.025604 575.148071,466.608368 
	C575.237122,473.170013 573.157959,476.831055 567.259277,479.066345 
	C547.977539,486.373138 528.593933,493.412750 509.352661,500.823059 
	C507.239380,501.636932 504.971802,503.868713 504.166473,505.974670 
	C497.276031,523.993164 490.821136,542.178101 483.940491,560.200500 
	C482.633667,563.623474 480.020996,566.547913 477.688232,569.912354 
z"/>
<path fill="#1ebb58" opacity="0.8" stroke="none" 
	d="
M571.597778,126.571487 
	C561.911743,130.574570 552.567261,134.471603 543.108398,138.067551 
	C532.073730,142.262573 520.861389,146.000931 509.908661,150.392654 
	C507.519318,151.350708 504.995697,153.887787 504.074585,156.288712 
	C497.105286,174.453979 490.537994,192.773209 483.807953,211.030655 
	C480.147491,220.960861 471.657654,225.094513 464.137512,219.925385 
	C461.131134,217.858856 458.907990,213.915985 457.518494,210.361923 
	C451.594635,195.209641 446.116058,179.883255 440.473267,164.621017 
	C440.415710,164.465210 440.284058,164.321503 440.272888,164.165970 
	C439.486359,153.236023 431.682190,149.964676 422.724884,146.922531 
	C406.677460,141.472397 390.891449,135.238647 375.073792,129.131485 
	C366.736389,125.912422 363.636841,119.245010 367.712006,112.171936 
	C369.437866,109.176468 373.043304,106.586151 376.369690,105.303246 
	C394.632904,98.259560 413.053070,91.618874 431.472870,84.988441 
	C435.121979,83.674904 436.965546,81.363197 438.299530,77.782776 
	C445.428680,58.648388 452.601746,39.523937 460.222748,20.582394 
	C463.250885,13.056220 471.810089,10.650542 478.016602,15.200344 
	C480.240173,16.830387 481.900940,19.737894 482.930176,22.405151 
	C489.873413,40.398319 496.675903,58.447868 503.287231,76.565544 
	C504.834351,80.805290 507.158020,83.358849 511.524231,84.906654 
	C529.519653,91.285973 547.368469,98.077438 565.313965,104.599678 
	C575.816833,108.416931 578.467346,116.938644 571.597778,126.571487 
z"/>
</svg>