<?xml version="1.0" standalone="no"?>
<!DOCTYPE svg PUBLIC "-//W3C//DTD SVG 20010904//EN"
 "http://www.w3.org/TR/2001/REC-SVG-20010904/DTD/svg10.dtd">
<svg version="1.0" xmlns="http://www.w3.org/2000/svg"
 width="279.000000pt" height="360.000000pt" viewBox="0 0 279.000000 360.000000"
 preserveAspectRatio="xMidYMid meet">

<g transform="translate(0.000000,360.000000) scale(0.100000,-0.100000)"
fill="#000000" stroke="none">
<path d="M234 3584 c-57 -20 -115 -72 -144 -130 l-25 -49 0 -1315 0 -1315 30
-54 c36 -65 101 -116 168 -131 27 -5 172 -10 330 -10 l283 0 63 64 64 65 -47
21 c-25 12 -49 26 -52 31 -3 5 -140 9 -305 9 l-300 0 -24 25 -25 24 0 1269 c0
1269 0 1269 21 1296 l20 26 975 0 c961 0 974 0 994 -20 20 -20 20 -33 20 -679
l0 -659 36 -12 c51 -17 104 -67 131 -125 l23 -50 -2 775 c-3 723 -4 777 -21
811 -24 47 -71 95 -121 122 l-41 22 -1005 2 c-862 1 -1011 0 -1046 -13z"/>
<path d="M551 2986 c-55 -31 -65 -93 -22 -137 l29 -29 707 0 707 0 29 29 c16
16 29 39 29 51 0 33 -26 75 -55 88 -40 18 -1391 16 -1424 -2z"/>
<path d="M552 2533 c-57 -27 -67 -89 -23 -134 l29 -29 707 0 707 0 29 29 c16
16 29 39 29 51 0 39 -28 79 -63 88 -19 5 -332 9 -709 9 -568 1 -681 -2 -706
-14z"/>
<path d="M544 2090 c-55 -22 -70 -95 -29 -135 l24 -25 298 0 c313 1 317 1 341
47 19 35 14 63 -17 94 l-29 29 -284 -1 c-156 0 -293 -4 -304 -9z"/>
<path d="M1651 1981 c-44 -45 -90 -83 -105 -87 -15 -4 -74 1 -131 10 -95 16
-106 16 -134 1 -41 -21 -56 -54 -70 -160 -7 -49 -19 -100 -27 -113 -8 -12 -54
-42 -102 -66 -156 -79 -166 -107 -93 -248 28 -53 51 -108 51 -121 0 -14 -23
-73 -51 -131 -51 -104 -52 -107 -38 -143 13 -34 26 -44 117 -91 71 -36 106
-61 116 -80 7 -15 21 -72 29 -127 14 -89 19 -103 47 -128 35 -31 53 -33 170
-12 47 8 97 13 111 10 14 -3 57 -37 95 -76 123 -125 152 -127 259 -18 102 103
103 103 237 83 105 -16 112 -16 144 1 40 21 50 44 68 162 8 50 20 100 27 112
7 11 54 41 104 66 102 52 135 83 135 125 0 16 -22 75 -50 131 -27 56 -50 108
-50 114 0 6 23 58 50 114 28 56 50 111 50 122 0 50 -29 78 -131 129 -116 59
-120 64 -139 203 -14 98 -39 141 -88 151 -15 4 -65 -1 -112 -9 -136 -24 -131
-26 -230 70 -85 82 -90 85 -135 85 -45 0 -49 -3 -124 -79z m318 -184 c284 -99
457 -372 421 -664 -46 -367 -407 -615 -764 -523 -182 46 -322 162 -406 335
-50 103 -64 180 -57 303 11 197 110 369 275 479 153 101 362 129 531 70z"/>
<path d="M1652 1726 c-183 -45 -339 -199 -387 -381 -20 -77 -19 -207 1 -276
67 -228 277 -389 509 -389 330 0 587 312 521 630 -43 204 -200 368 -397 415
-77 18 -174 18 -247 1z"/>
<path d="M550 1657 c-55 -28 -64 -94 -18 -137 20 -18 35 -20 169 -20 145 0
147 0 173 26 35 36 34 77 -3 115 l-29 29 -134 0 c-86 0 -142 -5 -158 -13z"/>
<path d="M988 493 c-195 -195 -196 -211 -19 -248 l95 -20 12 -60 c6 -33 15
-77 18 -97 8 -44 29 -68 59 -68 15 0 83 61 220 198 196 196 198 198 178 216
-20 18 -24 18 -131 1 -105 -17 -112 -17 -156 0 -58 22 -101 78 -109 143 -12
93 -7 95 -167 -65z"/>
<path d="M2405 594 c-16 -105 -56 -162 -134 -185 -30 -9 -59 -8 -141 6 -102
17 -102 17 -123 -4 l-22 -21 190 -190 c105 -105 200 -193 212 -196 11 -3 30
-1 41 5 20 10 27 34 52 163 l11 56 96 18 c97 17 133 36 133 71 0 9 -69 86
-154 172 l-154 155 -7 -50z"/>
</g>
</svg>
