<?xml version="1.0" standalone="no"?>
<!DOCTYPE svg PUBLIC "-//W3C//DTD SVG 20010904//EN"
 "http://www.w3.org/TR/2001/REC-SVG-20010904/DTD/svg10.dtd">
<svg version="1.0" xmlns="http://www.w3.org/2000/svg"
 width="175.000000pt" height="198.000000pt" viewBox="0 0 175.000000 198.000000"
 preserveAspectRatio="xMidYMid meet">

<g transform="translate(0.000000,198.000000) scale(0.100000,-0.100000)"
fill="#000000" stroke="none">
<path d="M617 1907 c-18 -18 -37 -41 -43 -52 -9 -17 -25 -21 -90 -25 -73 -5
-79 -7 -82 -27 -3 -22 -7 -23 -124 -23 -136 0 -178 -13 -209 -64 -18 -30 -19
-60 -17 -739 l3 -709 37 -34 38 -34 370 0 370 0 0 25 0 24 -359 3 c-337 3
-360 4 -380 22 -21 19 -21 20 -21 712 l0 693 26 20 c24 19 40 21 143 21 111 0
117 -1 126 -22 l10 -23 275 0 275 0 3 23 c3 21 6 22 127 22 106 0 126 -3 146
-19 l24 -19 3 -361 3 -361 24 0 25 0 0 369 c0 363 0 369 -22 396 -35 44 -74
55 -207 55 -116 0 -120 1 -123 23 -3 20 -10 22 -73 27 -80 6 -89 10 -110 50
-18 35 -62 60 -106 60 -22 0 -40 -9 -62 -33z m97 -33 c19 -18 19 -20 6 -45 -6
-10 -19 -19 -28 -19 -36 0 -55 43 -30 68 16 16 33 15 52 -4z"/>
<path d="M440 1465 l-74 -75 -37 36 c-39 38 -69 41 -69 6 0 -23 80 -102 103
-102 25 0 189 166 185 188 -7 34 -35 21 -108 -53z"/>
<path d="M653 1444 c-3 -8 -2 -19 3 -24 5 -5 108 -10 228 -10 169 -1 221 1
227 11 21 34 -9 39 -233 39 -189 0 -219 -2 -225 -16z"/>
<path d="M433 1168 l-73 -72 -34 33 c-36 35 -66 37 -66 3 0 -21 79 -102 101
-102 24 0 193 176 186 194 -12 31 -43 15 -114 -56z"/>
<path d="M654 1145 c-13 -32 7 -35 231 -35 227 0 240 2 228 38 -4 9 -59 12
-229 12 -187 0 -226 -2 -230 -15z"/>
<path d="M441 875 l-77 -75 -29 30 c-31 33 -62 39 -72 14 -6 -16 81 -114 101
-114 18 0 186 174 186 191 0 9 -7 20 -16 23 -11 4 -40 -17 -93 -69z"/>
<path d="M1185 908 c-2 -7 -7 -31 -12 -53 -7 -33 -14 -42 -45 -53 -35 -13 -38
-13 -71 12 -19 14 -41 26 -49 26 -14 0 -108 -92 -108 -106 0 -3 14 -23 30 -45
l31 -38 -21 -41 c-17 -33 -25 -40 -51 -40 -59 0 -69 -13 -69 -91 0 -65 1 -70
26 -79 14 -6 37 -10 52 -10 22 0 30 -8 44 -41 l18 -42 -32 -39 -31 -39 54 -55
c29 -30 57 -54 62 -54 5 0 24 12 43 26 33 25 37 26 74 14 37 -12 39 -16 47
-64 l8 -51 80 0 80 0 8 51 c8 48 10 52 47 64 36 12 40 11 72 -14 19 -14 39
-26 44 -26 5 0 34 24 63 54 l54 55 -31 39 -31 39 16 42 c14 37 19 41 50 41 63
0 73 12 73 90 0 77 -10 90 -69 90 -26 0 -34 7 -51 40 l-20 40 29 41 c28 38 29
43 15 63 -15 24 -88 86 -100 86 -4 0 -22 -12 -41 -26 -33 -25 -36 -25 -71 -12
-31 11 -38 20 -46 53 -4 22 -10 46 -12 53 -2 8 -27 12 -79 12 -52 0 -77 -4
-80 -12z m165 -267 c19 -10 48 -37 65 -60 61 -86 29 -213 -65 -261 -175 -89
-351 128 -225 278 51 61 154 81 225 43z"/>
<path d="M660 855 c-7 -8 -10 -22 -6 -30 4 -12 28 -15 134 -15 l128 0 29 30
29 30 -151 0 c-121 0 -153 -3 -163 -15z"/>
<path d="M441 576 l-75 -75 -38 34 c-38 35 -68 38 -68 6 0 -18 89 -111 106
-111 5 0 49 40 98 89 60 60 87 94 84 107 -7 36 -34 24 -107 -50z"/>
<path d="M660 555 c-23 -28 6 -46 68 -43 52 3 56 5 59 31 4 27 3 27 -55 27
-41 0 -64 -5 -72 -15z"/>
</g>
</svg>
