<?xml version="1.0" standalone="no"?>
<!DOCTYPE svg PUBLIC "-//W3C//DTD SVG 20010904//EN"
 "http://www.w3.org/TR/2001/REC-SVG-20010904/DTD/svg10.dtd">
<svg version="1.0" xmlns="http://www.w3.org/2000/svg"
 width="1280.000000pt" height="1280.000000pt" viewBox="0 0 1280.000000 1280.000000"
 preserveAspectRatio="xMidYMid meet">
<metadata>
Created by potrace 1.16, written by Peter Selinger 2001-2019
</metadata>
<g transform="translate(0.000000,1280.000000) scale(0.100000,-0.100000)"
fill="#000000" stroke="none">
<path d="M6410 11207 l0 -534 -187 -6 c-1451 -52 -2785 -748 -3664 -1912 -528
-699 -842 -1503 -941 -2410 -21 -190 -17 -832 5 -1015 73 -588 224 -1100 472
-1598 248 -499 544 -904 956 -1307 525 -515 1126 -881 1829 -1115 1534 -512
3226 -219 4490 779 318 250 656 598 894 921 475 640 787 1408 895 2205 28 206
41 366 41 523 l0 132 -537 -2 -536 -3 -3 -80 c-4 -167 -20 -359 -39 -465 -2
-14 -7 -45 -11 -70 -3 -24 -7 -47 -9 -50 -2 -4 -7 -28 -11 -55 -3 -27 -17 -92
-31 -145 -13 -52 -27 -106 -29 -119 -3 -14 -7 -28 -10 -33 -3 -4 -7 -16 -9
-25 -4 -24 -79 -245 -103 -308 -262 -674 -723 -1265 -1310 -1683 -515 -366
-1081 -585 -1727 -669 -170 -21 -670 -25 -830 -5 -282 35 -509 84 -755 164
-1223 399 -2158 1401 -2465 2641 -81 326 -108 552 -108 902 -1 279 12 427 59
685 128 702 476 1377 979 1898 355 368 769 654 1230 850 147 63 415 154 525
179 339 77 508 102 763 110 l177 6 0 -532 c0 -292 2 -531 5 -531 6 0 2083
1566 2108 1589 17 16 -38 59 -1035 812 -578 437 -1058 798 -1065 802 -11 7
-13 -88 -13 -526z"/>
<path d="M6190 7460 c-603 -83 -1099 -482 -1300 -1045 -63 -179 -81 -281 -87
-495 -4 -156 -2 -218 12 -305 97 -624 542 -1124 1151 -1295 42 -12 86 -23 98
-25 395 -69 737 -25 1056 135 461 231 775 655 862 1164 17 104 20 149 15 321
-4 167 -9 217 -30 305 -152 635 -611 1085 -1245 1221 -110 23 -420 34 -532 19z"/>
</g>
</svg>
