<?xml version="1.0" standalone="no"?>
<!DOCTYPE svg PUBLIC "-//W3C//DTD SVG 20010904//EN"
 "http://www.w3.org/TR/2001/REC-SVG-20010904/DTD/svg10.dtd">
<svg version="1.0" xmlns="http://www.w3.org/2000/svg"
 width="752.000000pt" height="568.000000pt" viewBox="0 0 752.000000 568.000000"
 preserveAspectRatio="xMidYMid meet">

<g transform="translate(0.000000,568.000000) scale(0.100000,-0.100000)"
fill="#000000" stroke="none">
<path d="M1157 5600 c-168 -11 -180 -15 -221 -60 l-36 -40 0 -270 0 -270 -349
0 c-345 0 -348 0 -382 -23 -19 -12 -42 -38 -51 -57 -17 -33 -18 -151 -18
-2040 0 -1949 1 -2006 19 -2047 36 -78 43 -80 456 -86 502 -8 933 -48 1438
-133 379 -63 866 -178 1117 -263 30 -10 100 -33 155 -51 94 -30 144 -49 365
-135 49 -19 98 -35 109 -35 10 0 70 21 133 46 657 265 1467 450 2363 539 192
18 554 35 778 35 291 0 308 3 353 69 l24 36 0 2020 c0 1998 0 2020 -20 2053
-11 18 -34 41 -52 52 -31 19 -51 20 -380 20 l-348 0 0 266 c0 372 12 357 -306
375 -545 30 -1166 -34 -1831 -190 -94 -22 -191 -47 -215 -55 -23 -7 -56 -17
-73 -20 -44 -10 -246 -72 -346 -107 l-85 -30 -50 19 c-62 24 -315 102 -459
140 -401 109 -919 201 -1300 232 -175 14 -642 20 -788 10z m5086 -279 l87 -1
0 -1894 0 -1894 -82 -6 c-46 -3 -155 -8 -243 -11 -201 -7 -349 -20 -590 -50
-518 -65 -936 -157 -1370 -300 -75 -25 -138 -45 -140 -45 -3 0 -5 861 -5 1914
l0 1914 43 16 c71 25 295 93 417 125 335 89 635 147 980 190 337 42 470 48
903 42z m-4118 -35 c498 -62 923 -154 1360 -294 l120 -38 3 -1917 c1 -1054 0
-1917 -4 -1917 -3 0 -74 23 -157 51 -561 187 -1324 323 -1941 344 -89 3 -198
8 -243 11 l-83 6 0 1895 0 1895 368 -5 c318 -4 395 -8 577 -31z"/>
<path d="M5540 4713 c-383 -28 -711 -93 -997 -197 -156 -57 -310 -130 -346
-164 -68 -65 -51 -179 33 -222 50 -26 85 -25 135 1 202 109 542 215 830 260
215 33 282 38 532 38 129 1 243 5 258 11 77 29 110 134 65 207 -36 60 -63 67
-275 68 -104 1 -210 0 -235 -2z"/>
<path d="M5480 3890 c-198 -13 -438 -52 -650 -105 -258 -65 -580 -195 -638
-258 -74 -79 -24 -216 84 -233 38 -5 55 -1 141 41 286 138 586 217 1003 265
52 7 196 12 320 12 177 0 232 4 257 15 96 44 97 199 1 249 -27 14 -66 18 -208
20 -96 1 -236 -2 -310 -6z"/>
<path d="M5475 3070 c-196 -14 -437 -53 -645 -105 -252 -64 -584 -197 -640
-257 -73 -78 -22 -217 86 -234 35 -5 55 1 145 44 191 90 412 164 619 206 252
51 608 81 815 70 96 -5 114 -3 144 13 94 53 93 200 -1 249 -27 14 -66 18 -213
20 -99 1 -238 -2 -310 -6z"/>
<path d="M5535 2254 c-209 -12 -500 -56 -690 -105 -270 -68 -594 -198 -653
-261 -53 -57 -48 -139 13 -198 52 -50 102 -48 225 12 362 175 812 268 1323
272 l238 2 36 36 c64 65 56 166 -19 219 -30 22 -41 23 -222 25 -105 1 -218 0
-251 -2z"/>
<path d="M1560 4711 c-46 -10 -72 -27 -99 -67 -19 -28 -23 -43 -19 -85 4 -42
12 -57 42 -87 l36 -37 303 -7 c271 -5 321 -9 490 -37 302 -49 547 -123 773
-232 56 -27 115 -49 131 -49 72 0 136 68 136 144 0 70 -24 101 -113 146 -248
125 -519 209 -853 265 -273 46 -707 70 -827 46z"/>
<path d="M1555 3891 c-48 -12 -72 -28 -94 -65 -37 -60 -24 -132 34 -186 l27
-25 225 -1 c266 -2 317 -6 565 -44 289 -45 549 -122 761 -225 119 -58 151 -63
205 -36 86 44 104 158 35 223 -83 77 -473 224 -753 283 -87 18 -303 52 -415
65 -111 13 -549 21 -590 11z"/>
<path d="M1555 3071 c-48 -12 -72 -28 -95 -67 -34 -54 -25 -124 24 -172 l36
-37 123 2 c410 7 855 -57 1187 -172 110 -37 248 -96 300 -127 45 -28 124 -29
163 -4 37 25 60 72 60 122 0 64 -27 99 -113 143 -288 149 -646 248 -1090 301
-111 14 -551 22 -595 11z"/>
<path d="M1559 2251 c-118 -23 -159 -155 -75 -240 l37 -36 127 3 c507 10 1049
-92 1414 -267 135 -65 154 -68 211 -43 53 24 80 66 80 127 0 67 -25 101 -106
141 -415 210 -964 327 -1512 323 -77 -1 -156 -4 -176 -8z"/>
</g>
</svg>
